<?xml version="1.0" encoding="iso-8859-1"?>
<!-- Uploaded to: SVG Repo, www.svgrepo.com, Generator: SVG Repo Mixer Tools -->
<svg fill="#000000" height="125px" width="125px" version="1.1" id="Layer_1" xmlns="http://www.w3.org/2000/svg" xmlns:xlink="http://www.w3.org/1999/xlink" 
	 viewBox="0 0 512 512" xml:space="preserve">
<g>
	<g>
		<polygon points="467.657,107.392 460.043,115.005 452.349,107.312 441.504,118.158 460.043,136.696 478.502,118.236 		"/>
	</g>
</g>
<g>
	<g>
		<polygon points="59.651,139.468 52.036,147.082 44.343,139.388 33.498,150.233 52.036,168.773 70.496,150.313 		"/>
	</g>
</g>
<g>
	<g>
		<polygon points="182.306,275.563 174.692,283.176 167,275.483 156.154,286.328 174.692,304.867 193.152,286.408 		"/>
	</g>
</g>
<g>
	<g>
		<polygon points="382.991,442.666 375.378,450.279 367.684,442.586 356.838,453.432 375.378,471.97 393.836,453.511 		"/>
	</g>
</g>
<g>
	<g>
		<path d="M371.42,315.239l-6.857-0.378c-2.189-0.122-53.994-2.598-85.318,28.726c-5.679,5.679-10.242,12.032-13.914,18.64V250.918
			c2.614-0.306,5.195-0.767,7.725-1.396c22.695-5.254,45.88-21.904,67.048-48.157c40.547-50.284,37.684-138.863,37.542-142.609
			l-0.364-9.627l-9.3,2.513c-0.605,0.164-13.063,3.556-30.849,10.146c-3.912-29.12-12.118-52.137-12.503-53.207L321.538,0
			l-7.924,4.521c-1.266,0.722-29.47,16.927-55.952,41.181C231.179,21.447,202.975,5.242,201.71,4.521L193.788,0l-3.092,8.582
			c-0.385,1.07-8.592,24.088-12.504,53.207c-17.785-6.588-30.243-9.982-30.848-10.146l-9.3-2.513l-0.364,9.627
			c-0.142,3.747-3.006,92.326,37.542,142.608c21.142,26.22,44.294,42.859,66.962,48.134c0.006,0.001,0.011,0.003,0.017,0.005
			c0.012,0.003,0.023,0.005,0.036,0.008c0.034,0.008,0.069,0.017,0.102,0.026v-0.001c2.51,0.622,5.072,1.083,7.656,1.385v140.233
			c-3.028-4.958-6.643-9.712-10.97-14.037c-28.589-28.591-75.812-26.33-77.807-26.223l-6.857,0.378l-0.378,6.857
			c-0.109,1.996-2.368,49.217,26.223,77.807c21.9,21.9,54.727,25.698,69.788,26.228V512h15.338v-75.816
			c15.904-0.417,53.134-4.163,77.741-28.77c31.324-31.324,28.846-83.128,28.726-85.318L371.42,315.239z M191.05,425.094
			c-17.711-17.711-21.11-45.664-21.689-58.818c13.161,0.58,41.11,3.981,58.818,21.689c17.711,17.711,21.11,45.664,21.689,58.818
			C236.707,446.203,208.757,442.802,191.05,425.094z M313.082,22.827c2.86,9.684,7.124,26.181,9.319,44.705
			c-0.129,0.053-0.256,0.107-0.384,0.161c-0.346,0.142-0.686,0.286-1.032,0.429c-1.46,0.604-2.909,1.214-4.347,1.827
			c-0.518,0.221-1.035,0.443-1.55,0.666c-1.464,0.632-2.917,1.269-4.358,1.91c-0.294,0.131-0.593,0.261-0.887,0.393
			c-1.698,0.761-3.375,1.53-5.038,2.303c-0.442,0.206-0.879,0.413-1.319,0.62c-1.285,0.603-2.558,1.211-3.821,1.821
			c-0.459,0.222-0.92,0.444-1.376,0.667c-1.628,0.796-3.242,1.595-4.831,2.402c-0.062,0.032-0.123,0.063-0.185,0.095
			c-1.211,0.616-2.412,1.234-3.6,1.856c-0.043-0.068-0.09-0.136-0.133-0.205c-0.607-0.957-1.233-1.917-1.879-2.879
			c-0.139-0.207-0.284-0.414-0.425-0.622c-0.529-0.778-1.071-1.556-1.625-2.337c-0.208-0.291-0.416-0.584-0.627-0.875
			c-0.58-0.804-1.174-1.608-1.78-2.415c-0.137-0.182-0.269-0.364-0.407-0.546c-0.74-0.975-1.503-1.952-2.282-2.931
			c-0.198-0.248-0.402-0.498-0.602-0.746c-0.61-0.758-1.233-1.516-1.867-2.276c-0.242-0.29-0.485-0.581-0.731-0.872
			c-0.762-0.902-1.537-1.804-2.331-2.708c-0.077-0.088-0.15-0.175-0.228-0.263c-0.871-0.988-1.766-1.977-2.675-2.965
			c-0.256-0.278-0.515-0.556-0.774-0.833c-0.698-0.752-1.407-1.503-2.127-2.256c-0.17-0.178-0.331-0.355-0.502-0.533
			C285.414,41.21,303.093,29.187,313.082,22.827z M202.248,22.826c11.119,7.077,31.765,21.171,50.078,38.916
			c1.117,1.082,2.198,2.161,3.266,3.237c0.224,0.226,0.449,0.453,0.671,0.679c1.026,1.045,2.03,2.088,3.007,3.128
			c0.178,0.189,0.352,0.379,0.529,0.568c0.902,0.966,1.784,1.931,2.644,2.893c0.132,0.148,0.269,0.295,0.4,0.444
			c0.923,1.039,1.817,2.074,2.691,3.107c0.195,0.231,0.39,0.462,0.583,0.692c0.869,1.039,1.721,2.076,2.541,3.107
			c0.084,0.105,0.164,0.211,0.246,0.316c0.766,0.969,1.506,1.936,2.228,2.899c0.151,0.201,0.305,0.403,0.453,0.604
			c0.748,1.01,1.471,2.017,2.171,3.022c0.144,0.207,0.284,0.413,0.426,0.62c0.671,0.974,1.322,1.947,1.946,2.914
			c0.037,0.056,0.075,0.113,0.111,0.17c-0.191,0.112-0.373,0.228-0.564,0.341c-1.197,0.711-2.376,1.425-3.543,2.143
			c-0.325,0.2-0.659,0.398-0.982,0.599c-1.475,0.916-2.925,1.837-4.351,2.764c-0.348,0.226-0.684,0.454-1.029,0.68
			c-1.075,0.707-2.138,1.415-3.183,2.127c-0.465,0.317-0.923,0.635-1.382,0.953c-0.925,0.641-1.839,1.283-2.738,1.927
			c-0.266,0.19-0.544,0.378-0.808,0.568c-0.441-0.319-0.896-0.636-1.344-0.954c-0.376-0.268-0.75-0.536-1.13-0.803
			c-0.901-0.632-1.815-1.261-2.739-1.889c-0.193-0.131-0.38-0.263-0.575-0.394c-1.121-0.756-2.261-1.508-3.415-2.259
			c-0.341-0.221-0.689-0.441-1.033-0.662c-0.831-0.534-1.667-1.066-2.514-1.597c-0.434-0.271-0.871-0.541-1.309-0.811
			c-0.786-0.486-1.58-0.97-2.38-1.453c-0.452-0.272-0.904-0.545-1.36-0.816c-0.849-0.505-1.708-1.007-2.572-1.509
			c-0.403-0.234-0.803-0.469-1.209-0.702c-1.268-0.728-2.548-1.453-3.847-2.172c-1.587-0.879-3.201-1.753-4.834-2.621
			c-0.525-0.279-1.062-0.554-1.592-0.832c-1.119-0.587-2.24-1.173-3.38-1.755c-0.646-0.33-1.304-0.656-1.957-0.985
			c-1.046-0.526-2.095-1.049-3.157-1.57c-0.701-0.344-1.409-0.684-2.117-1.026c-1.039-0.501-2.084-1-3.138-1.496
			c-0.731-0.345-1.466-0.687-2.205-1.029c-1.059-0.491-2.128-0.978-3.201-1.463c-0.742-0.335-1.485-0.672-2.234-1.005
			c-1.111-0.494-2.234-0.984-3.36-1.472c-0.724-0.315-1.445-0.63-2.175-0.943c-1.242-0.531-2.5-1.056-3.759-1.581
			c-0.626-0.261-1.245-0.525-1.875-0.783c-0.11-0.045-0.218-0.092-0.327-0.137C195.118,49.043,199.387,32.523,202.248,22.826z
			 M208.957,158.948c-1.327,2.63-2.53,5.239-3.589,7.786c-0.391,0.939-0.761,1.873-1.117,2.805
			c-0.113,0.297-0.217,0.591-0.326,0.886c-0.236,0.635-0.468,1.269-0.688,1.9c-0.121,0.347-0.233,0.691-0.349,1.037
			c-0.193,0.579-0.383,1.155-0.563,1.73c-0.112,0.36-0.22,0.718-0.327,1.076c-0.168,0.562-0.33,1.122-0.486,1.681
			c-0.099,0.356-0.196,0.712-0.289,1.065c-0.149,0.564-0.288,1.127-0.424,1.687c-0.082,0.338-0.165,0.678-0.242,1.015
			c-0.136,0.597-0.26,1.191-0.38,1.784c-0.059,0.292-0.124,0.586-0.179,0.877c-0.14,0.73-0.264,1.456-0.38,2.18
			c-0.023,0.15-0.054,0.302-0.077,0.451c-0.136,0.88-0.254,1.756-0.354,2.625c-0.021,0.185-0.035,0.367-0.055,0.551
			c-0.073,0.674-0.138,1.345-0.19,2.011c-0.023,0.292-0.037,0.582-0.055,0.873c-0.036,0.556-0.067,1.11-0.088,1.662
			c-0.012,0.321-0.018,0.64-0.026,0.959c-0.011,0.518-0.018,1.036-0.016,1.549c0.001,0.327,0.005,0.652,0.011,0.978
			c0.01,0.506,0.028,1.009,0.05,1.511c0.014,0.319,0.029,0.639,0.048,0.956c0.032,0.511,0.074,1.019,0.119,1.527
			c0.027,0.299,0.05,0.598,0.081,0.895c0.058,0.556,0.131,1.106,0.206,1.656c0.033,0.238,0.059,0.48,0.094,0.717
			c0.007,0.045,0.011,0.092,0.018,0.137c-4.116-4.189-8.198-8.789-12.221-13.78c-29.409-36.469-33.657-98.307-34.152-122.39
			c6.954,2.202,17.149,5.643,28.865,10.269c15.685,6.194,30.129,12.932,42.931,20.025c1.64,0.909,3.245,1.826,4.83,2.747
			c0.445,0.259,0.883,0.517,1.324,0.777c1.239,0.729,2.46,1.462,3.664,2.198c0.363,0.222,0.73,0.443,1.09,0.665
			c1.505,0.932,2.985,1.867,4.432,2.808c0.286,0.186,0.563,0.373,0.848,0.56c1.175,0.771,2.33,1.546,3.465,2.322
			c0.217,0.148,0.432,0.297,0.647,0.446c-0.782,0.678-1.552,1.359-2.308,2.041c-0.036,0.033-0.07,0.064-0.105,0.097
			c-0.909,0.822-1.794,1.646-2.665,2.473c-0.261,0.247-0.518,0.496-0.776,0.744c-0.707,0.681-1.4,1.363-2.08,2.047
			c-0.197,0.199-0.4,0.397-0.595,0.596c-0.84,0.855-1.659,1.713-2.457,2.572c-0.188,0.202-0.37,0.406-0.556,0.609
			c-0.631,0.688-1.248,1.377-1.852,2.069c-0.218,0.248-0.436,0.497-0.649,0.746c-0.751,0.873-1.487,1.747-2.194,2.624
			c-7.563,9.38-13.801,18.641-18.541,27.527C209.856,157.192,209.4,158.071,208.957,158.948z M245.918,234.623
			c-4.848-1.211-9.5-3.216-13.828-5.959c-6.963-4.414-11.927-9.899-14.864-16.342c-4.897-10.74-4.168-24.143,2.302-39.698
			c1.225-2.945,2.681-6.004,4.327-9.092c0.536-1.004,1.094-2.015,1.674-3.033c4.058-7.12,9.185-14.534,15.274-22.084
			c4.884-6.055,11.041-12.099,18.338-18.004c1.042-0.844,2.108-1.684,3.196-2.522c3.042-2.34,6.277-4.666,9.69-6.969
			c5.689-3.838,11.876-7.611,18.493-11.278c8.001-4.434,16.644-8.727,25.829-12.837c5.511-2.465,11.219-4.865,17.101-7.188
			c11.696-4.619,21.899-8.063,28.865-10.268c-0.495,24.084-4.745,85.92-34.152,122.389c-19.014,23.579-39.284,38.398-58.622,42.854
			l-0.137,0.033c-3.771,0.942-7.711,1.399-11.781,1.391C253.633,236.039,249.69,235.567,245.918,234.623z M332.227,396.568
			c-20.146,20.148-52.106,23.688-66.357,24.222c0.535-14.257,4.076-46.213,24.221-66.358c20.153-20.153,52.127-23.689,66.372-24.221
			C355.953,344.443,352.452,376.345,332.227,396.568z"/>
	</g>
</g>
</svg>